<?xml version="1.0" encoding="UTF-8" standalone="no"?>
<svg xmlns:dc="http://purl.org/dc/elements/1.1/" xmlns:cc="http://creativecommons.org/ns#" xmlns:rdf="http://www.w3.org/1999/02/22-rdf-syntax-ns#" xmlns:svg="http://www.w3.org/2000/svg" xmlns="http://www.w3.org/2000/svg" viewBox="0 0 1122.52 793.70667" height="793.70667" width="1122.52" xml:space="preserve" id="svg3699" version="1.1"><metadata id="metadata3705"><rdf:RDF><cc:Work rdf:about=""><dc:format>image/svg+xml</dc:format><dc:type rdf:resource="http://purl.org/dc/dcmitype/StillImage"/><dc:title/></cc:Work></rdf:RDF></metadata><defs id="defs3703"><clipPath id="clipPath3715" clipPathUnits="userSpaceOnUse"><path id="path3713" d="M 0,595.28 H 841.89 V 0 H 0 Z"/></clipPath></defs><g transform="matrix(1.3333333,0,0,-1.3333333,0,793.70667)" id="g3707"><g transform="matrix(1.988199,0,0,1.988199,-421.19932,-294.1271)" style="fill:#266fa9;fill-opacity:1;stroke:none" id="g3709"><g style="fill:#266fa9;fill-opacity:1;stroke:none" clip-path="url(#clipPath3715)" id="g3711"><g style="fill:#266fa9;fill-opacity:1;stroke:none" transform="translate(405.7202,315.478)" id="g3717"><path id="path3719" style="fill:#266fa9;fill-opacity:1;fill-rule:nonzero;stroke:none" d="m 0,0 c 0,9.272 6.158,17.099 14.603,19.636 -3.096,1.978 -5.157,5.438 -5.157,9.385 0,6.152 4.987,11.138 11.14,11.138 6.152,0 11.139,-4.986 11.139,-11.138 0,-3.965 -2.08,-7.439 -5.203,-9.412 C 34.915,17.038 41.018,9.235 41.018,0 41.018,-11.327 0,-11.327 0,0 m 20.504,111.124 c 15.051,0 27.53,-12.475 27.53,-27.527 v -8.482 c -3.698,1.216 -7.645,1.883 -11.749,1.883 -16.098,0 -29.789,-10.141 -35.13,-24.389 -2.208,2.423 -5.007,4.301 -8.176,5.371 v 25.617 c 0,15.052 12.47,27.527 27.525,27.527 M 73.663,35.902 c 0.129,1.164 0.175,2.357 0.175,3.544 0,12.382 -5.989,23.357 -15.225,30.196 v 13.955 c 0,21.007 -17.098,38.097 -38.107,38.097 -21.006,0 -38.1,-17.09 -38.1,-38.097 V 58.429 c -8.509,-2.029 -14.843,-9.658 -14.843,-18.795 0,-1.264 0.132,-2.487 0.373,-3.684 -14.254,-2.351 -25.157,-14.636 -25.157,-29.537 0,-16.607 13.444,-30.04 30.041,-30.04 h 95.381 c 16.598,0 30.04,13.433 30.04,30.04 0.006,14.717 -10.604,26.906 -24.578,29.489"/></g><g style="fill:#266fa9;fill-opacity:1;stroke:none" transform="translate(503.9609,253.6768)" id="g3721"><path id="path3723" style="fill:#266fa9;fill-opacity:1;fill-rule:nonzero;stroke:none" d="m 0,0 c 0,-2.506 -34.801,-4.542 -77.732,-4.542 -42.925,0 -77.73,2.036 -77.73,4.542 0,2.51 34.805,4.54 77.73,4.54 C -34.801,4.54 0,2.51 0,0"/></g><g style="fill:#266fa9;fill-opacity:1;stroke:none" transform="translate(291.6548,207.6611)" id="g3725"><path id="path3727" style="fill:#266fa9;fill-opacity:1;fill-rule:nonzero;stroke:none" d="m 0,0 c -1.024,0 -1.858,-0.021 -2.504,-0.061 -0.649,-0.041 -1.12,-0.089 -1.416,-0.141 -1.268,-0.377 -1.9,-1.362 -1.9,-2.95 v -42.885 c 0,-1.59 0.647,-2.587 1.94,-2.99 0.378,-0.054 0.889,-0.103 1.537,-0.143 0.646,-0.04 1.427,-0.06 2.343,-0.06 2.102,0 3.154,1.064 3.154,3.193 V -3.152 C 3.154,-1.05 2.102,0 0,0"/></g><g style="fill:#266fa9;fill-opacity:1;stroke:none" transform="translate(353.5361,171.7686)" id="g3729"><path id="path3731" style="fill:#266fa9;fill-opacity:1;fill-rule:nonzero;stroke:none" d="m 0,0 c 0,-2.211 -1.442,-3.827 -4.325,-4.85 -2.02,-0.726 -4.42,-1.092 -7.194,-1.092 H -43.49 v 34.518 h 32.133 c 2.586,0 4.918,-0.323 6.992,-0.971 C -1.455,26.664 0,25.234 0,23.321 Z m -11.116,35.893 h -38.195 c -2.102,0 -3.152,-1.052 -3.152,-3.153 v -42.885 c 0,-2.128 1.05,-3.193 3.152,-3.193 h 37.994 c 5.201,0 9.606,0.916 13.217,2.748 4.662,2.399 6.993,5.915 6.993,10.55 v 23.402 c 0,8.355 -6.67,12.531 -20.009,12.531"/></g><g style="fill:#266fa9;fill-opacity:1;stroke:none" transform="translate(376.7778,166.1504)" id="g3733"><path id="path3735" style="fill:#266fa9;fill-opacity:1;fill-rule:nonzero;stroke:none" d="M 0,0 C -1.105,0.7 -2.371,1.05 -3.8,1.05 -5.201,1.05 -6.455,0.7 -7.559,0 c -1.187,-0.782 -1.779,-1.872 -1.779,-3.273 0,-1.429 0.592,-2.548 1.779,-3.355 1.024,-0.701 2.29,-1.052 3.8,-1.052 1.455,0 2.708,0.365 3.759,1.091 1.211,0.835 1.818,1.941 1.818,3.316 C 1.818,-1.898 1.211,-0.808 0,0"/></g><g style="fill:#266fa9;fill-opacity:1;stroke:none" transform="translate(441.624,207.6611)" id="g3737"><path id="path3739" style="fill:#266fa9;fill-opacity:1;fill-rule:nonzero;stroke:none" d="m 0,0 c -0.913,0 -1.692,-0.021 -2.334,-0.061 -0.645,-0.041 -1.154,-0.089 -1.531,-0.141 -1.286,-0.404 -1.928,-1.387 -1.928,-2.95 v -34.275 l -41.382,35.203 c -2.05,1.725 -4.046,2.588 -5.987,2.588 -3.075,0 -4.611,-1.778 -4.611,-5.336 v -41.065 c 0,-2.129 1.051,-3.193 3.153,-3.193 0.916,0 1.697,0.02 2.344,0.06 0.646,0.04 1.159,0.089 1.536,0.143 1.293,0.403 1.94,1.4 1.94,2.99 v 34.477 l 41.914,-35.608 c 1.913,-1.591 3.624,-2.386 5.135,-2.386 3.286,0 4.931,1.872 4.931,5.618 V -3.152 C 3.18,-1.05 2.116,0 0,0"/></g><g style="fill:#266fa9;fill-opacity:1;stroke:none" transform="translate(501.751,171.8496)" id="g3741"><path id="path3743" style="fill:#266fa9;fill-opacity:1;fill-rule:nonzero;stroke:none" d="m 0,0 c 0,-4.015 -4.531,-6.023 -13.593,-6.023 h -14.283 c -9.171,0 -13.755,2.008 -13.755,6.023 v 22.271 c 0,4.15 4.584,6.224 13.755,6.224 h 14.242 C -4.544,28.495 0,26.421 0,22.271 Z m 1.132,33.952 c -2.91,1.239 -7.91,1.86 -14.995,1.86 h -13.986 c -15.17,0 -22.755,-4.447 -22.755,-13.339 V -0.242 c 0,-5.01 2.721,-8.622 8.166,-10.833 3.556,-1.563 8.417,-2.344 14.589,-2.344 h 13.986 c 15.224,0 22.837,4.406 22.837,13.217 v 22.675 c 0,5.631 -2.616,9.458 -7.842,11.479"/></g><g style="fill:#266fa9;fill-opacity:1;stroke:none" transform="translate(563.4707,207.6611)" id="g3745"><path id="path3747" style="fill:#266fa9;fill-opacity:1;fill-rule:nonzero;stroke:none" d="m 0,0 h -48.663 c -1.376,0 -2.278,-0.378 -2.709,-1.133 -0.323,-0.537 -0.485,-1.535 -0.485,-2.99 0,-2.13 1.063,-3.193 3.194,-3.193 h 19.764 v -38.721 c 0,-1.59 0.635,-2.574 1.908,-2.951 0.514,-0.161 1.827,-0.242 3.939,-0.242 2.084,0 3.125,1.064 3.125,3.193 V -7.316 H 0 c 2.102,0 3.153,1.063 3.153,3.193 C 3.153,-1.374 2.102,0 0,0"/></g></g></g></g></svg>